<?xml version="1.0" standalone="no"?>
<!DOCTYPE svg PUBLIC "-//W3C//DTD SVG 20010904//EN"
 "http://www.w3.org/TR/2001/REC-SVG-20010904/DTD/svg10.dtd">
<svg version="1.0" xmlns="http://www.w3.org/2000/svg"
 width="276.000000pt" height="276.000000pt" viewBox="0 0 276.000000 276.000000"
 preserveAspectRatio="xMidYMid meet">
<metadata>
Created by potrace 1.14, written by Peter Selinger 2001-2017
</metadata>
<g transform="translate(0.000000,276.000000) scale(0.100000,-0.100000)"
fill="#000000" stroke="none">
<path d="M1468 1997 c-8 -7 -43 -13 -87 -14 -40 -1 -78 -6 -83 -11 -5 -5 -11
-25 -15 -45 -6 -37 -5 -37 25 -31 34 7 34 6 46 -83 6 -38 4 -43 -21 -55 -15
-7 -29 -22 -31 -33 -3 -18 -18 -56 -43 -107 -5 -10 -9 -24 -9 -32 0 -20 -22
-26 -92 -26 -46 0 -64 4 -73 17 -13 17 -14 17 -33 0 -16 -14 -30 -17 -68 -12
-30 4 -61 2 -79 -5 -37 -15 -216 -22 -231 -9 -7 6 -28 6 -55 0 -59 -14 -69
-13 -69 3 0 13 -20 26 -41 26 -5 0 -9 -7 -9 -15 0 -11 -7 -14 -22 -10 -18 4
-106 11 -172 15 -4 0 -6 8 -4 18 3 10 0 26 -7 36 -13 16 -14 16 -24 -1 -10
-16 -12 -16 -23 -2 -26 33 -82 52 -72 24 7 -18 0 -19 -28 -4 -20 11 -21 9 -15
-20 8 -39 -21 -60 -60 -42 -19 9 -29 8 -48 -6 l-24 -18 -1 -777 0 -778 1380 0
1380 0 0 823 0 823 -32 11 c-18 7 -68 12 -111 12 -63 0 -80 -4 -89 -18 -7 -11
-19 -16 -33 -13 -13 2 -26 -1 -29 -7 -4 -6 -29 -11 -56 -11 -27 0 -52 -5 -56
-11 -4 -7 -22 -9 -51 -4 -25 4 -59 1 -79 -5 -29 -10 -41 -10 -61 1 -19 10 -26
10 -32 1 -5 -8 -16 -9 -37 -2 -54 17 -104 36 -110 43 -11 11 -21 8 -37 -8 -8
-8 -37 -15 -63 -17 -27 -1 -55 -7 -63 -12 -17 -13 -41 17 -41 52 0 13 -25 75
-56 137 -61 126 -114 186 -180 204 -50 14 -60 14 -76 -2z m-88 -261 c0 -18
-27 -29 -36 -14 -4 5 0 14 7 19 20 13 29 11 29 -5z m23 -50 c3 -8 1 -31 -4
-51 -8 -26 -7 -41 0 -48 21 -21 12 -64 -16 -82 -16 -10 -37 -29 -49 -43 -21
-26 -44 -24 -44 4 0 8 -7 26 -16 39 -8 13 -14 36 -12 52 3 24 9 29 46 36 31 6
42 13 42 27 0 10 -4 22 -10 25 -7 4 -8 47 -1 50 16 8 60 2 64 -9z m19 -275 c3
-3 9 -22 13 -42 6 -31 4 -37 -14 -42 -13 -3 -21 -13 -21 -26 0 -15 -6 -21 -23
-21 -35 0 -61 33 -53 67 4 15 9 39 11 53 2 14 4 26 4 28 2 5 76 -10 83 -17z
m-297 -1 c0 -1 13 -4 30 -6 37 -6 42 -11 27 -26 -8 -8 -15 -8 -24 -1 -7 6 -26
13 -41 15 -38 7 -30 -14 11 -27 32 -9 37 -19 33 -62 -1 -17 2 -21 14 -17 10 4
15 0 15 -10 0 -9 -5 -16 -11 -16 -8 0 -8 -5 1 -15 7 -8 19 -15 26 -15 8 0 11
6 8 15 -4 10 0 15 15 15 12 0 21 -6 21 -15 0 -8 -4 -15 -10 -15 -5 0 -10 -5
-10 -11 0 -6 -7 -17 -15 -26 -28 -27 -2 -78 46 -88 16 -4 29 -13 29 -20 0 -7
3 -20 6 -29 4 -11 1 -16 -10 -16 -9 0 -16 -5 -16 -11 0 -6 -6 -9 -12 -6 -7 2
-18 -3 -24 -11 -7 -10 -18 -12 -34 -7 l-24 8 32 28 c26 24 30 32 23 52 -5 12
-16 29 -25 36 -9 7 -16 24 -16 37 0 15 -12 32 -31 46 -20 15 -29 29 -25 41 2
10 -2 21 -11 24 -9 4 -13 13 -9 28 5 20 1 23 -32 29 -31 5 -40 2 -54 -17 -17
-22 -18 -22 -18 -1 0 31 66 101 93 98 12 -1 22 -3 22 -4z m1085 -106 c0 -8 -5
-12 -10 -9 -6 4 -8 11 -5 16 9 14 15 11 15 -7z m-935 -14 c3 -5 2 -10 -4 -10
-5 0 -13 5 -16 10 -3 6 -2 10 4 10 5 0 13 -4 16 -10z m50 -10 c3 -5 1 -10 -4
-10 -6 0 -11 5 -11 10 0 6 2 10 4 10 3 0 8 -4 11 -10z m-895 -4 c0 -3 -4 -8
-10 -11 -5 -3 -10 -1 -10 4 0 6 5 11 10 11 6 0 10 -2 10 -4z m970 -51 c0 -10
-10 -15 -27 -15 -26 0 -26 1 -7 15 25 19 34 19 34 0z m82 -17 c-8 -8 -9 -4 -5
13 4 13 8 18 11 10 2 -7 -1 -18 -6 -23z m-369 -50 c3 -24 9 -53 13 -66 5 -18
3 -22 -12 -19 -11 1 -25 6 -32 11 -11 7 -12 4 -3 -12 16 -30 14 -49 -7 -54
-20 -6 -62 23 -62 41 0 18 54 113 68 118 6 3 12 12 12 20 0 31 18 1 23 -39z
m447 13 c0 -4 -16 -12 -35 -18 -46 -15 -57 3 -13 21 32 14 48 13 48 -3z m-183
-57 c4 -10 0 -22 -8 -28 -15 -11 -29 -38 -35 -64 -1 -8 -5 -21 -9 -30 -6 -16
-7 -16 -16 -1 -6 11 -4 31 5 57 29 80 49 102 63 66z m206 -16 c8 -13 4 -24
-21 -52 -17 -20 -39 -51 -48 -68 -15 -30 -17 -31 -30 -14 -10 14 -11 24 -2 39
8 16 7 23 -6 32 -20 15 -21 37 -2 33 8 -2 26 10 40 25 28 30 52 32 69 5z
m-189 -114 c3 -8 2 -12 -4 -9 -6 3 -10 10 -10 16 0 14 7 11 14 -7z m-144 -44
c-8 -5 -22 -9 -30 -9 -10 0 -8 3 5 9 27 12 43 12 25 0z m10 -112 c0 -16 -22
-8 -41 15 -28 33 -23 40 11 15 17 -12 30 -25 30 -30z m35 22 c3 -5 -1 -10 -9
-10 -9 0 -16 5 -16 10 0 6 4 10 9 10 6 0 13 -4 16 -10z m65 0 c-8 -5 -19 -10
-25 -10 -5 0 -3 5 5 10 8 5 20 10 25 10 6 0 3 -5 -5 -10z m-800 -10 c0 -5 -4
-10 -10 -10 -5 0 -10 5 -10 10 0 6 5 10 10 10 6 0 10 -4 10 -10z m-63 -32 c-3
-7 -5 -2 -5 12 0 14 2 19 5 13 2 -7 2 -19 0 -25z m596 -21 c19 -18 22 -30 19
-64 -3 -36 -7 -42 -24 -40 -26 4 -39 26 -32 54 4 14 -1 27 -15 39 -11 10 -18
21 -15 26 10 15 45 8 67 -15z m-723 -2 c7 -8 8 -15 2 -15 -5 0 -15 7 -22 15
-7 8 -8 15 -2 15 5 0 15 -7 22 -15z m656 -70 c-15 -15 -16 -15 -16 3 0 24 11
35 23 23 6 -6 4 -16 -7 -26z m26 -72 c5 -7 5 -13 0 -17 -12 -7 -22 18 -21 47
1 21 2 21 6 2 3 -11 9 -25 15 -32z m53 -63 c7 -21 6 -23 -6 -13 -8 6 -15 24
-17 40 -2 31 10 18 23 -27z m-63 -12 c-7 -7 -12 -8 -12 -2 0 14 12 26 19 19 2
-3 -1 -11 -7 -17z m-72 -147 c-1 -13 -3 -13 -15 3 -19 26 -19 42 0 26 8 -7 15
-20 15 -29z"/>
<path d="M1303 1563 c-40 -20 -42 -32 -5 -26 26 4 27 4 7 -13 -19 -16 -19 -16
15 -9 19 4 44 7 55 7 14 -1 16 1 6 7 -10 6 -10 10 -2 16 9 5 9 10 0 21 -15 18
-36 17 -76 -3z"/>
<path d="M1240 1742 c0 -5 7 -13 16 -16 10 -4 14 -1 12 6 -5 15 -28 23 -28 10z"/>
<path d="M1231 1708 c-1 -13 7 -18 24 -18 14 0 25 5 25 11 0 6 -9 9 -20 6 -10
-3 -21 0 -24 7 -2 6 -5 3 -5 -6z"/>
<path d="M1226 1647 c3 -10 9 -15 12 -12 3 3 0 11 -7 18 -10 9 -11 8 -5 -6z"/>
</g>
</svg>
